<svg height="32" width="32" xmlns="http://www.w3.org/2000/svg"><g clip-rule="evenodd" fill="#121313" fill-rule="evenodd"><path d="M8.624 21.336h2.015c1.402-7.953 8.329-14 16.684-14 .35 0 .683.003 1.019.006l-3.664 3.663a.999.999 0 1 0 1.414 1.414L32 6.356 26.093.293a.999.999 0 1 0-1.414 1.414l3.631 3.631c-.318-.001-.62-.003-.945-.003-9.47.001-17.299 6.936-18.741 16.001z"/><path d="M29 15a1 1 0 0 0-1 1v14H2V10h9a1 1 0 0 0 0-2H2a2 2 0 0 0-2 2v20a2 2 0 0 0 2 2h26a2 2 0 0 0 2-2V16a1 1 0 0 0-1-1z"/></g></svg>